<svg xmlns="http://www.w3.org/2000/svg" xmlns:xlink="http://www.w3.org/1999/xlink" width="500" zoomAndPan="magnify" viewBox="0 0 375 374.999991" height="500" preserveAspectRatio="xMidYMid meet" version="1.0"><defs><g/><clipPath id="4244ecc4cd"><path d="M 130.253906 113.726562 L 245 113.726562 L 245 162 L 130.253906 162 Z M 130.253906 113.726562 " clip-rule="nonzero"/></clipPath><clipPath id="8250c25da6"><path d="M 130.253906 165 L 245 165 L 245 212.726562 L 130.253906 212.726562 Z M 130.253906 165 " clip-rule="nonzero"/></clipPath></defs><g clip-path="url(#4244ecc4cd)"><path fill="#8000ff" d="M 136.007812 161.507812 L 163.210938 161.507812 L 158.390625 155.582031 C 157.539062 154.53125 157.113281 153.332031 157.113281 151.980469 L 155.207031 151.980469 C 155.789062 150.3125 156.496094 148.695312 157.328125 147.132812 C 158.160156 145.570312 159.105469 144.082031 160.167969 142.667969 C 161.230469 141.253906 162.394531 139.929688 163.664062 138.695312 C 164.929688 137.460938 166.285156 136.328125 167.726562 135.304688 C 169.167969 134.28125 170.679688 133.371094 172.261719 132.582031 C 173.84375 131.789062 175.480469 131.125 177.164062 130.585938 C 178.851562 130.050781 180.566406 129.644531 182.316406 129.371094 C 184.0625 129.101562 185.820312 128.964844 187.589844 128.964844 C 189.359375 128.964844 191.117188 129.101562 192.867188 129.371094 C 194.613281 129.644531 196.332031 130.050781 198.015625 130.585938 C 199.703125 131.125 201.335938 131.789062 202.917969 132.582031 C 204.5 133.371094 206.011719 134.28125 207.457031 135.304688 C 208.898438 136.328125 210.253906 137.460938 211.519531 138.695312 C 212.785156 139.929688 213.949219 141.253906 215.011719 142.667969 C 216.074219 144.082031 217.023438 145.570312 217.851562 147.132812 C 218.683594 148.695312 219.390625 150.3125 219.972656 151.980469 L 218.066406 151.980469 C 218.074219 153.332031 217.65625 154.53125 216.8125 155.582031 L 211.972656 161.507812 L 239.171875 161.507812 L 244.316406 155.066406 C 244.542969 154.785156 244.675781 154.460938 244.71875 154.101562 C 244.757812 153.738281 244.699219 153.394531 244.546875 153.066406 C 244.386719 152.738281 244.15625 152.472656 243.84375 152.277344 C 243.535156 152.082031 243.199219 151.984375 242.832031 151.980469 L 235.765625 151.980469 C 235.445312 150.640625 235.066406 149.3125 234.636719 148.003906 C 234.207031 146.691406 233.722656 145.402344 233.183594 144.132812 C 232.644531 142.859375 232.050781 141.617188 231.410156 140.394531 C 230.765625 139.175781 230.074219 137.980469 229.328125 136.820312 C 228.585938 135.65625 227.796875 134.527344 226.960938 133.429688 C 226.121094 132.332031 225.242188 131.273438 224.316406 130.25 C 223.390625 129.226562 222.421875 128.242188 221.414062 127.300781 C 220.40625 126.359375 219.363281 125.460938 218.277344 124.605469 C 217.195312 123.75 216.078125 122.941406 214.929688 122.179688 C 213.777344 121.417969 212.597656 120.707031 211.386719 120.042969 C 210.175781 119.378906 208.941406 118.769531 207.679688 118.207031 C 206.417969 117.648438 205.136719 117.144531 203.832031 116.691406 C 202.53125 116.238281 201.210938 115.839844 199.871094 115.5 C 198.535156 115.15625 197.1875 114.871094 195.828125 114.640625 C 194.464844 114.410156 193.097656 114.238281 191.722656 114.125 C 190.347656 114.007812 188.972656 113.953125 187.589844 113.953125 C 186.210938 113.953125 184.832031 114.007812 183.457031 114.125 C 182.082031 114.238281 180.714844 114.410156 179.355469 114.640625 C 177.996094 114.871094 176.644531 115.15625 175.308594 115.5 C 173.972656 115.839844 172.652344 116.238281 171.347656 116.691406 C 170.046875 117.144531 168.761719 117.648438 167.5 118.207031 C 166.238281 118.769531 165.003906 119.378906 163.792969 120.042969 C 162.585938 120.707031 161.402344 121.417969 160.253906 122.179688 C 159.101562 122.941406 157.984375 123.75 156.902344 124.605469 C 155.820312 125.460938 154.773438 126.359375 153.765625 127.300781 C 152.757812 128.242188 151.792969 129.226562 150.867188 130.25 C 149.941406 131.273438 149.058594 132.332031 148.222656 133.429688 C 147.382812 134.527344 146.59375 135.65625 145.851562 136.820312 C 145.109375 137.980469 144.417969 139.175781 143.773438 140.394531 C 143.128906 141.617188 142.539062 142.859375 142 144.132812 C 141.460938 145.402344 140.976562 146.691406 140.542969 148.003906 C 140.113281 149.3125 139.738281 150.640625 139.417969 151.980469 L 132.351562 151.980469 C 131.984375 151.984375 131.644531 152.082031 131.335938 152.277344 C 131.027344 152.472656 130.792969 152.738281 130.636719 153.066406 C 130.480469 153.394531 130.421875 153.738281 130.464844 154.101562 C 130.507812 154.460938 130.640625 154.785156 130.863281 155.066406 Z M 221.210938 132.476562 C 223.761719 135.238281 225.9375 138.269531 227.738281 141.570312 C 229.535156 144.871094 230.902344 148.339844 231.839844 151.980469 L 223.917969 151.980469 C 222.253906 146.683594 219.5625 141.972656 215.839844 137.847656 Z M 153.96875 132.476562 L 159.34375 137.847656 C 155.621094 141.972656 152.925781 146.683594 151.265625 151.980469 L 143.339844 151.980469 C 144.277344 148.339844 145.644531 144.871094 147.445312 141.570312 C 149.242188 138.269531 151.417969 135.238281 153.96875 132.476562 Z M 153.96875 132.476562 " fill-opacity="1" fill-rule="nonzero"/></g><g clip-path="url(#8250c25da6)"><path fill="#8000ff" d="M 239.171875 165.316406 L 208.886719 165.316406 L 201.152344 174.839844 L 219.972656 174.839844 C 219.390625 176.511719 218.683594 178.128906 217.851562 179.6875 C 217.023438 181.25 216.074219 182.738281 215.011719 184.152344 C 213.949219 185.566406 212.785156 186.894531 211.519531 188.128906 C 210.253906 189.363281 208.898438 190.492188 207.457031 191.515625 C 206.011719 192.542969 204.5 193.449219 202.917969 194.242188 C 201.335938 195.03125 199.703125 195.695312 198.015625 196.234375 C 196.332031 196.773438 194.613281 197.175781 192.867188 197.449219 C 191.117188 197.722656 189.359375 197.859375 187.589844 197.859375 C 185.820312 197.859375 184.0625 197.722656 182.316406 197.449219 C 180.566406 197.175781 178.851562 196.773438 177.164062 196.234375 C 175.480469 195.695312 173.84375 195.03125 172.261719 194.242188 C 170.679688 193.449219 169.167969 192.542969 167.726562 191.515625 C 166.285156 190.492188 164.929688 189.363281 163.664062 188.128906 C 162.394531 186.894531 161.230469 185.566406 160.167969 184.152344 C 159.105469 182.738281 158.160156 181.25 157.328125 179.6875 C 156.496094 178.128906 155.789062 176.511719 155.207031 174.839844 L 173.972656 174.839844 L 166.238281 165.316406 L 136.007812 165.316406 L 130.863281 171.753906 C 130.65625 172.027344 130.535156 172.335938 130.492188 172.675781 C 130.453125 173.015625 130.5 173.34375 130.636719 173.660156 C 130.78125 174.007812 131.007812 174.289062 131.316406 174.503906 C 131.628906 174.71875 131.972656 174.832031 132.351562 174.839844 L 139.417969 174.839844 C 139.738281 176.183594 140.113281 177.507812 140.542969 178.820312 C 140.976562 180.128906 141.460938 181.421875 142 182.691406 C 142.539062 183.960938 143.128906 185.207031 143.773438 186.425781 C 144.417969 187.648438 145.109375 188.839844 145.851562 190.003906 C 146.59375 191.164062 147.382812 192.296875 148.222656 193.394531 C 149.058594 194.488281 149.941406 195.550781 150.867188 196.574219 C 151.792969 197.597656 152.757812 198.578125 153.765625 199.519531 C 154.773438 200.464844 155.820312 201.363281 156.902344 202.21875 C 157.984375 203.074219 159.101562 203.878906 160.253906 204.640625 C 161.402344 205.402344 162.585938 206.117188 163.792969 206.78125 C 165.003906 207.441406 166.238281 208.054688 167.5 208.613281 C 168.761719 209.171875 170.046875 209.679688 171.347656 210.132812 C 172.652344 210.585938 173.972656 210.980469 175.308594 211.324219 C 176.644531 211.667969 177.996094 211.953125 179.355469 212.179688 C 180.714844 212.410156 182.082031 212.582031 183.457031 212.699219 C 184.832031 212.8125 186.210938 212.871094 187.589844 212.871094 C 188.972656 212.871094 190.347656 212.8125 191.722656 212.699219 C 193.097656 212.582031 194.464844 212.410156 195.828125 212.179688 C 197.1875 211.953125 198.535156 211.667969 199.871094 211.324219 C 201.210938 210.980469 202.53125 210.585938 203.832031 210.132812 C 205.136719 209.679688 206.417969 209.171875 207.679688 208.613281 C 208.941406 208.054688 210.175781 207.441406 211.386719 206.78125 C 212.597656 206.117188 213.777344 205.402344 214.929688 204.640625 C 216.078125 203.878906 217.195312 203.074219 218.277344 202.21875 C 219.363281 201.363281 220.40625 200.464844 221.414062 199.519531 C 222.421875 198.578125 223.390625 197.597656 224.316406 196.574219 C 225.242188 195.550781 226.121094 194.488281 226.960938 193.394531 C 227.796875 192.296875 228.585938 191.164062 229.328125 190.003906 C 230.074219 188.839844 230.765625 187.648438 231.410156 186.425781 C 232.050781 185.207031 232.644531 183.960938 233.183594 182.691406 C 233.722656 181.421875 234.207031 180.128906 234.636719 178.820312 C 235.066406 177.507812 235.445312 176.183594 235.765625 174.839844 L 242.832031 174.839844 C 243.199219 174.839844 243.535156 174.742188 243.84375 174.542969 C 244.15625 174.347656 244.386719 174.085938 244.546875 173.753906 C 244.679688 173.4375 244.730469 173.113281 244.6875 172.769531 C 244.648438 172.429688 244.523438 172.125 244.316406 171.847656 Z M 153.96875 194.34375 C 151.417969 191.585938 149.242188 188.554688 147.445312 185.253906 C 145.644531 181.953125 144.277344 178.480469 143.339844 174.839844 L 151.265625 174.839844 C 152.925781 180.140625 155.621094 184.851562 159.34375 188.972656 Z M 221.210938 194.34375 L 215.839844 188.972656 C 219.5625 184.851562 222.253906 180.140625 223.917969 174.839844 L 231.839844 174.839844 C 230.902344 178.480469 229.535156 181.953125 227.738281 185.253906 C 225.9375 188.554688 223.761719 191.585938 221.210938 194.34375 Z M 221.210938 194.34375 " fill-opacity="1" fill-rule="nonzero"/></g><path fill="#8000ff" d="M 213.34375 150.363281 L 200.960938 142.742188 C 200.660156 142.546875 200.332031 142.453125 199.972656 142.457031 L 175.210938 142.457031 C 174.851562 142.453125 174.519531 142.546875 174.21875 142.742188 L 161.835938 150.363281 C 161.34375 150.660156 161.042969 151.089844 160.941406 151.660156 C 160.84375 152.226562 160.976562 152.734375 161.34375 153.183594 L 186.105469 183.660156 C 186.285156 183.886719 186.507812 184.058594 186.765625 184.183594 C 187.027344 184.308594 187.300781 184.371094 187.589844 184.371094 C 187.878906 184.371094 188.15625 184.308594 188.414062 184.183594 C 188.675781 184.058594 188.894531 183.886719 189.078125 183.660156 L 213.839844 153.183594 C 214.203125 152.734375 214.335938 152.226562 214.238281 151.660156 C 214.136719 151.089844 213.839844 150.660156 213.34375 150.363281 Z M 175.742188 146.269531 L 182.351562 146.269531 L 179.496094 150.078125 L 169.550781 150.078125 Z M 166.828125 153.886719 L 178.695312 153.886719 L 186.960938 178.648438 Z M 199.4375 146.269531 L 205.628906 150.078125 L 195.6875 150.078125 L 192.828125 146.269531 Z M 188.21875 178.648438 L 196.488281 153.886719 L 208.355469 153.886719 Z M 188.21875 178.648438 " fill-opacity="1" fill-rule="nonzero"/><g fill="#02033b" fill-opacity="1"><g transform="translate(105.703123, 246.031976)"><g><path d="M 11.96875 0.390625 C 9.875 0.390625 7.988281 -0.0507812 6.3125 -0.9375 C 4.644531 -1.820312 3.335938 -3.046875 2.390625 -4.609375 C 1.441406 -6.171875 0.96875 -7.929688 0.96875 -9.890625 C 0.96875 -11.859375 1.441406 -13.625 2.390625 -15.1875 C 3.335938 -16.75 4.644531 -17.972656 6.3125 -18.859375 C 7.988281 -19.742188 9.875 -20.1875 11.96875 -20.1875 C 14.0625 -20.1875 15.941406 -19.742188 17.609375 -18.859375 C 19.273438 -17.972656 20.582031 -16.75 21.53125 -15.1875 C 22.488281 -13.625 22.96875 -11.859375 22.96875 -9.890625 C 22.96875 -7.929688 22.488281 -6.171875 21.53125 -4.609375 C 20.582031 -3.046875 19.273438 -1.820312 17.609375 -0.9375 C 15.941406 -0.0507812 14.0625 0.390625 11.96875 0.390625 Z M 11.96875 -4.234375 C 12.96875 -4.234375 13.867188 -4.46875 14.671875 -4.9375 C 15.484375 -5.414062 16.125 -6.082031 16.59375 -6.9375 C 17.070312 -7.800781 17.3125 -8.785156 17.3125 -9.890625 C 17.3125 -11.003906 17.070312 -11.988281 16.59375 -12.84375 C 16.125 -13.707031 15.484375 -14.375 14.671875 -14.84375 C 13.867188 -15.3125 12.96875 -15.546875 11.96875 -15.546875 C 10.96875 -15.546875 10.0625 -15.3125 9.25 -14.84375 C 8.4375 -14.375 7.796875 -13.707031 7.328125 -12.84375 C 6.859375 -11.988281 6.625 -11.003906 6.625 -9.890625 C 6.625 -8.785156 6.859375 -7.800781 7.328125 -6.9375 C 7.796875 -6.082031 8.4375 -5.414062 9.25 -4.9375 C 10.0625 -4.46875 10.96875 -4.234375 11.96875 -4.234375 Z M 11.96875 -4.234375 "/></g></g></g><g fill="#02033b" fill-opacity="1"><g transform="translate(129.61586, 246.031976)"><g><path d="M 1.984375 -19.796875 L 7.578125 -19.796875 L 7.578125 -4.4375 L 17.03125 -4.4375 L 17.03125 0 L 1.984375 0 Z M 1.984375 -19.796875 "/></g></g></g><g fill="#02033b" fill-opacity="1"><g transform="translate(146.857905, 246.031976)"><g><path d="M 6.1875 -15.359375 L 0.109375 -15.359375 L 0.109375 -19.796875 L 17.84375 -19.796875 L 17.84375 -15.359375 L 11.796875 -15.359375 L 11.796875 0 L 6.1875 0 Z M 6.1875 -15.359375 "/></g></g></g><g fill="#02033b" fill-opacity="1"><g transform="translate(164.8066, 246.031976)"><g><path d="M 10.640625 -5.265625 L 7.578125 -5.265625 L 7.578125 0 L 1.984375 0 L 1.984375 -19.796875 L 11.03125 -19.796875 C 12.820312 -19.796875 14.375 -19.5 15.6875 -18.90625 C 17.007812 -18.3125 18.03125 -17.460938 18.75 -16.359375 C 19.46875 -15.253906 19.828125 -13.957031 19.828125 -12.46875 C 19.828125 -11.039062 19.488281 -9.789062 18.8125 -8.71875 C 18.144531 -7.65625 17.191406 -6.820312 15.953125 -6.21875 L 20.21875 0 L 14.21875 0 Z M 14.171875 -12.46875 C 14.171875 -13.394531 13.878906 -14.113281 13.296875 -14.625 C 12.710938 -15.132812 11.84375 -15.390625 10.6875 -15.390625 L 7.578125 -15.390625 L 7.578125 -9.59375 L 10.6875 -9.59375 C 11.84375 -9.59375 12.710938 -9.84375 13.296875 -10.34375 C 13.878906 -10.84375 14.171875 -11.550781 14.171875 -12.46875 Z M 14.171875 -12.46875 "/></g></g></g><g fill="#02033b" fill-opacity="1"><g transform="translate(185.723183, 246.031976)"><g><path d="M 15.25 -3.84375 L 6.875 -3.84375 L 5.3125 0 L -0.390625 0 L 8.34375 -19.796875 L 13.859375 -19.796875 L 22.625 0 L 16.796875 0 Z M 13.609375 -7.96875 L 11.0625 -14.3125 L 8.515625 -7.96875 Z M 13.609375 -7.96875 "/></g></g></g><g fill="#02033b" fill-opacity="1"><g transform="translate(207.939986, 246.031976)"><g><path d="M 22.0625 -19.796875 L 13.578125 0 L 8.0625 0 L -0.390625 -19.796875 L 5.65625 -19.796875 L 11.03125 -6.90625 L 16.515625 -19.796875 Z M 22.0625 -19.796875 "/></g></g></g><g fill="#02033b" fill-opacity="1"><g transform="translate(229.591474, 246.031976)"><g><path d="M 17.875 -4.328125 L 17.875 0 L 1.984375 0 L 1.984375 -19.796875 L 17.5 -19.796875 L 17.5 -15.46875 L 7.515625 -15.46875 L 7.515625 -12.125 L 16.3125 -12.125 L 16.3125 -7.953125 L 7.515625 -7.953125 L 7.515625 -4.328125 Z M 17.875 -4.328125 "/></g></g></g><g fill="#02033b" fill-opacity="1"><g transform="translate(248.585999, 246.031976)"><g><path d="M 10.640625 -5.265625 L 7.578125 -5.265625 L 7.578125 0 L 1.984375 0 L 1.984375 -19.796875 L 11.03125 -19.796875 C 12.820312 -19.796875 14.375 -19.5 15.6875 -18.90625 C 17.007812 -18.3125 18.03125 -17.460938 18.75 -16.359375 C 19.46875 -15.253906 19.828125 -13.957031 19.828125 -12.46875 C 19.828125 -11.039062 19.488281 -9.789062 18.8125 -8.71875 C 18.144531 -7.65625 17.191406 -6.820312 15.953125 -6.21875 L 20.21875 0 L 14.21875 0 Z M 14.171875 -12.46875 C 14.171875 -13.394531 13.878906 -14.113281 13.296875 -14.625 C 12.710938 -15.132812 11.84375 -15.390625 10.6875 -15.390625 L 7.578125 -15.390625 L 7.578125 -9.59375 L 10.6875 -9.59375 C 11.84375 -9.59375 12.710938 -9.84375 13.296875 -10.34375 C 13.878906 -10.84375 14.171875 -11.550781 14.171875 -12.46875 Z M 14.171875 -12.46875 "/></g></g></g><g fill="#02033b" fill-opacity="1"><g transform="translate(269.502582, 246.031976)"><g><path d="M 8.9375 0.390625 C 7.332031 0.390625 5.773438 0.191406 4.265625 -0.203125 C 2.765625 -0.597656 1.539062 -1.125 0.59375 -1.78125 L 2.4375 -5.90625 C 3.320312 -5.320312 4.347656 -4.847656 5.515625 -4.484375 C 6.679688 -4.128906 7.832031 -3.953125 8.96875 -3.953125 C 11.113281 -3.953125 12.1875 -4.492188 12.1875 -5.578125 C 12.1875 -6.140625 11.878906 -6.554688 11.265625 -6.828125 C 10.648438 -7.097656 9.664062 -7.382812 8.3125 -7.6875 C 6.820312 -8.007812 5.578125 -8.351562 4.578125 -8.71875 C 3.578125 -9.09375 2.71875 -9.679688 2 -10.484375 C 1.289062 -11.296875 0.9375 -12.390625 0.9375 -13.765625 C 0.9375 -14.972656 1.265625 -16.0625 1.921875 -17.03125 C 2.578125 -18.007812 3.5625 -18.78125 4.875 -19.34375 C 6.1875 -19.90625 7.796875 -20.1875 9.703125 -20.1875 C 11.003906 -20.1875 12.285156 -20.039062 13.546875 -19.75 C 14.804688 -19.457031 15.921875 -19.03125 16.890625 -18.46875 L 15.15625 -14.3125 C 13.269531 -15.332031 11.441406 -15.84375 9.671875 -15.84375 C 8.554688 -15.84375 7.742188 -15.675781 7.234375 -15.34375 C 6.722656 -15.007812 6.46875 -14.582031 6.46875 -14.0625 C 6.46875 -13.53125 6.769531 -13.128906 7.375 -12.859375 C 7.976562 -12.597656 8.953125 -12.328125 10.296875 -12.046875 C 11.804688 -11.722656 13.054688 -11.378906 14.046875 -11.015625 C 15.035156 -10.648438 15.890625 -10.066406 16.609375 -9.265625 C 17.335938 -8.460938 17.703125 -7.375 17.703125 -6 C 17.703125 -4.8125 17.367188 -3.734375 16.703125 -2.765625 C 16.046875 -1.804688 15.054688 -1.039062 13.734375 -0.46875 C 12.421875 0.101562 10.820312 0.390625 8.9375 0.390625 Z M 8.9375 0.390625 "/></g></g></g><g fill="#02033b" fill-opacity="1"><g transform="translate(287.790457, 246.031976)"><g><path d="M 17.875 -4.328125 L 17.875 0 L 1.984375 0 L 1.984375 -19.796875 L 17.5 -19.796875 L 17.5 -15.46875 L 7.515625 -15.46875 L 7.515625 -12.125 L 16.3125 -12.125 L 16.3125 -7.953125 L 7.515625 -7.953125 L 7.515625 -4.328125 Z M 17.875 -4.328125 "/></g></g></g><g fill="#02033b" fill-opacity="1"><g transform="translate(213.736136, 258.204539)"><g><path d="M 0.734375 -1.640625 C 0.921875 -1.828125 1.160156 -1.921875 1.453125 -1.921875 C 1.753906 -1.921875 2 -1.828125 2.1875 -1.640625 C 2.375 -1.453125 2.46875 -1.207031 2.46875 -0.90625 C 2.46875 -0.613281 2.375 -0.375 2.1875 -0.1875 C 2 0 1.753906 0.09375 1.453125 0.09375 C 1.160156 0.09375 0.921875 0 0.734375 -0.1875 C 0.546875 -0.375 0.453125 -0.613281 0.453125 -0.90625 C 0.453125 -1.207031 0.546875 -1.453125 0.734375 -1.640625 Z M 0.734375 -1.640625 "/></g></g></g><g fill="#02033b" fill-opacity="1"><g transform="translate(217.285135, 258.204539)"><g><path d="M 0.734375 -1.640625 C 0.921875 -1.828125 1.160156 -1.921875 1.453125 -1.921875 C 1.753906 -1.921875 2 -1.828125 2.1875 -1.640625 C 2.375 -1.453125 2.46875 -1.207031 2.46875 -0.90625 C 2.46875 -0.613281 2.375 -0.375 2.1875 -0.1875 C 2 0 1.753906 0.09375 1.453125 0.09375 C 1.160156 0.09375 0.921875 0 0.734375 -0.1875 C 0.546875 -0.375 0.453125 -0.613281 0.453125 -0.90625 C 0.453125 -1.207031 0.546875 -1.453125 0.734375 -1.640625 Z M 0.734375 -1.640625 "/></g></g></g><g fill="#02033b" fill-opacity="1"><g transform="translate(220.834133, 258.204539)"><g><path d="M 0.734375 -1.640625 C 0.921875 -1.828125 1.160156 -1.921875 1.453125 -1.921875 C 1.753906 -1.921875 2 -1.828125 2.1875 -1.640625 C 2.375 -1.453125 2.46875 -1.207031 2.46875 -0.90625 C 2.46875 -0.613281 2.375 -0.375 2.1875 -0.1875 C 2 0 1.753906 0.09375 1.453125 0.09375 C 1.160156 0.09375 0.921875 0 0.734375 -0.1875 C 0.546875 -0.375 0.453125 -0.613281 0.453125 -0.90625 C 0.453125 -1.207031 0.546875 -1.453125 0.734375 -1.640625 Z M 0.734375 -1.640625 "/></g></g></g><g fill="#02033b" fill-opacity="1"><g transform="translate(224.383131, 258.204539)"><g><path d="M 8.640625 0 L 6.75 0 L 2.859375 -5.203125 L 2.859375 0 L 0.84375 0 L 0.84375 -8.453125 L 2.734375 -8.453125 L 6.640625 -3.234375 L 6.640625 -8.453125 L 8.640625 -8.453125 Z M 8.640625 0 "/></g></g></g><g fill="#02033b" fill-opacity="1"><g transform="translate(234.485855, 258.204539)"><g><path d="M 7.109375 -6.765625 L 3 -6.765625 L 3 -4.8125 L 6.78125 -4.8125 L 6.78125 -3.109375 L 3 -3.109375 L 3 0 L 0.84375 0 L 0.84375 -8.453125 L 7.109375 -8.453125 Z M 7.109375 -6.765625 "/></g></g></g><g fill="#02033b" fill-opacity="1"><g transform="translate(242.391931, 258.204539)"><g><path d="M 7.3125 -6.734375 L 4.765625 -6.734375 L 4.765625 0 L 2.609375 0 L 2.609375 -6.734375 L 0.078125 -6.734375 L 0.078125 -8.46875 L 7.3125 -8.46875 Z M 7.3125 -6.734375 "/></g></g></g><g fill="#02033b" fill-opacity="1"><g transform="translate(250.382504, 258.204539)"><g/></g></g><g fill="#02033b" fill-opacity="1"><g transform="translate(253.798741, 258.204539)"><g><path d="M 10.34375 0 L 8.140625 0 L 6.578125 -5.84375 L 4.96875 0 L 2.75 0 L -0.015625 -8.453125 L 2.28125 -8.453125 L 3.9375 -2.234375 L 5.5625 -8.453125 L 7.65625 -8.453125 L 9.3125 -2.234375 L 10.9375 -8.453125 L 13.140625 -8.453125 Z M 10.34375 0 "/></g></g></g><g fill="#02033b" fill-opacity="1"><g transform="translate(267.461971, 258.204539)"><g><path d="M 4.859375 -8.53125 C 6.171875 -8.53125 7.257812 -8.117188 8.125 -7.296875 C 9 -6.484375 9.4375 -5.460938 9.4375 -4.234375 C 9.4375 -3.003906 9 -1.972656 8.125 -1.140625 C 7.25 -0.316406 6.160156 0.09375 4.859375 0.09375 C 3.554688 0.09375 2.46875 -0.316406 1.59375 -1.140625 C 0.726562 -1.960938 0.296875 -2.992188 0.296875 -4.234375 C 0.296875 -5.472656 0.726562 -6.5 1.59375 -7.3125 C 2.46875 -8.125 3.554688 -8.53125 4.859375 -8.53125 Z M 4.875 -6.734375 C 4.21875 -6.734375 3.65625 -6.492188 3.1875 -6.015625 C 2.71875 -5.535156 2.484375 -4.941406 2.484375 -4.234375 C 2.484375 -3.523438 2.71875 -2.925781 3.1875 -2.4375 C 3.664062 -1.945312 4.226562 -1.703125 4.875 -1.703125 C 5.53125 -1.703125 6.082031 -1.945312 6.53125 -2.4375 C 6.988281 -2.925781 7.21875 -3.523438 7.21875 -4.234375 C 7.21875 -4.941406 6.988281 -5.535156 6.53125 -6.015625 C 6.082031 -6.492188 5.53125 -6.734375 4.875 -6.734375 Z M 4.875 -6.734375 "/></g></g></g><g fill="#02033b" fill-opacity="1"><g transform="translate(277.794024, 258.204539)"><g><path d="M 5.9375 0 L 4.6875 -2.375 L 3 -2.375 L 3 0 L 0.84375 0 L 0.84375 -8.453125 L 4.625 -8.453125 C 5.75 -8.453125 6.613281 -8.195312 7.21875 -7.6875 C 7.832031 -7.175781 8.140625 -6.445312 8.140625 -5.5 C 8.140625 -4.195312 7.628906 -3.296875 6.609375 -2.796875 L 8.375 0 Z M 3 -4.0625 L 4.625 -4.0625 C 5.09375 -4.0625 5.453125 -4.175781 5.703125 -4.40625 C 5.960938 -4.644531 6.09375 -4.988281 6.09375 -5.4375 C 6.09375 -5.875 5.960938 -6.203125 5.703125 -6.421875 C 5.453125 -6.648438 5.09375 -6.765625 4.625 -6.765625 L 3 -6.765625 Z M 3 -4.0625 "/></g></g></g><g fill="#02033b" fill-opacity="1"><g transform="translate(287.14844, 258.204539)"><g><path d="M 3 -1.796875 L 6.578125 -1.796875 L 6.578125 0 L 0.84375 0 L 0.84375 -8.453125 L 3 -8.453125 Z M 3 -1.796875 "/></g></g></g><g fill="#02033b" fill-opacity="1"><g transform="translate(294.523467, 258.204539)"><g><path d="M 0.84375 -8.453125 L 4.484375 -8.453125 C 5.804688 -8.453125 6.882812 -8.0625 7.71875 -7.28125 C 8.550781 -6.5 8.96875 -5.484375 8.96875 -4.234375 C 8.96875 -2.984375 8.546875 -1.960938 7.703125 -1.171875 C 6.859375 -0.390625 5.753906 0 4.390625 0 L 0.84375 0 Z M 3 -6.734375 L 3 -1.71875 L 4.53125 -1.71875 C 5.1875 -1.71875 5.722656 -1.945312 6.140625 -2.40625 C 6.566406 -2.875 6.78125 -3.476562 6.78125 -4.21875 C 6.78125 -4.957031 6.554688 -5.5625 6.109375 -6.03125 C 5.671875 -6.5 5.113281 -6.734375 4.4375 -6.734375 Z M 3 -6.734375 "/></g></g></g></svg>